<svg width="143" height="34" fill="none"
  xmlns="http://www.w3.org/2000/svg">
  <path d="M4.635 14.758a4.043 4.043 0 01-2.917-1.133 4.006 4.006 0 01-.9-4.432 4.028 4.028 0 013.818-2.445 3.97 3.97 0 013.413 2.027c-.109-.024.055.09 0 0l1.652 1.86a8.495 8.495 0 005.793 2.304c2.926 0 5.901-1.711 7.457-4.17-.055.094.094-.036 0 0a3.975 3.975 0 013.413-2.026 4.042 4.042 0 012.918 1.133 4.007 4.007 0 011.218 2.87 3.99 3.99 0 01-1.218 2.873 4.025 4.025 0 01-2.917 1.133 8.521 8.521 0 00-5.832 2.347l-.8.817c-.285.326-.55.668-.798 1.024a3.874 3.874 0 01-1.43 1.504 3.902 3.902 0 01-5.443-1.504c.067.033-.036-.063 0 0a8.97 8.97 0 00-3.183-3.024 9.016 9.016 0 00-4.244-1.158zm21.742 4.483c-.796 0-1.575.235-2.237.676a4.01 4.01 0 00-1.482 1.798 3.99 3.99 0 00.873 4.366 4.042 4.042 0 004.386.869 4.02 4.02 0 001.806-1.476 3.994 3.994 0 00-.5-5.058 4.038 4.038 0 00-2.846-1.175zM8.66 23.248c0-.792-.236-1.567-.678-2.226a4.021 4.021 0 00-1.806-1.476 4.042 4.042 0 00-4.387.869 3.99 3.99 0 00-.873 4.366A4.01 4.01 0 002.4 26.58a4.039 4.039 0 005.082-.5 4 4 0 001.18-2.832H8.66zM15.506 33.5a4.04 4.04 0 002.236-.675 4.01 4.01 0 001.483-1.798 3.99 3.99 0 00-.873-4.367 4.042 4.042 0 00-4.387-.87 4.02 4.02 0 00-1.806 1.477 3.993 3.993 0 00.502 5.058 4.04 4.04 0 002.846 1.175z" fill="#6366F1"/>
  <path d="M19.531 4.507c0-.793-.236-1.567-.678-2.226A4.021 4.021 0 0017.046.805a4.042 4.042 0 00-4.386.869 4 4 0 00-.873 4.366 4.01 4.01 0 001.483 1.798 4.038 4.038 0 005.08-.5 4.004 4.004 0 001.181-2.831z" fill="#6366F1"/>
  <path d="M47.442 11.156c1.372 0 2.464.448 3.276 1.344.826.882 1.239 2.1 1.239 3.654V23h-3.57v-6.363c0-.784-.203-1.393-.609-1.827-.406-.434-.952-.651-1.638-.651-.686 0-1.232.217-1.638.651-.406.434-.609 1.043-.609 1.827V23h-3.591V11.282h3.591v1.554a3.706 3.706 0 011.47-1.218c.616-.308 1.309-.462 2.079-.462zM65.498 16.952c0 .336-.02.686-.063 1.05h-8.127c.056.728.287 1.288.693 1.68.42.378.931.567 1.533.567.896 0 1.52-.378 1.87-1.134h3.821a5.177 5.177 0 01-1.07 2.079 5.213 5.213 0 01-1.912 1.449c-.77.35-1.63.525-2.583.525-1.148 0-2.17-.245-3.066-.735a5.228 5.228 0 01-2.1-2.1c-.504-.91-.756-1.974-.756-3.192 0-1.218.245-2.282.735-3.192a5.228 5.228 0 012.1-2.1c.896-.49 1.925-.735 3.087-.735 1.134 0 2.142.238 3.024.714a5.059 5.059 0 012.058 2.037c.504.882.756 1.911.756 3.087zm-3.675-.945c0-.616-.21-1.106-.63-1.47-.42-.364-.945-.546-1.575-.546-.602 0-1.113.175-1.533.525-.406.35-.658.847-.756 1.491h4.494zM84.214 11.282L81.043 23h-3.97l-1.847-7.602L73.315 23h-3.948l-3.192-11.718h3.59l1.66 8.379 1.974-8.379h3.8l1.996 8.337 1.638-8.337h3.38zM90.35 23.168c-1.022 0-1.932-.175-2.73-.525-.798-.35-1.428-.826-1.89-1.428a3.838 3.838 0 01-.777-2.058h3.55c.041.406.23.735.566.987.336.252.75.378 1.24.378.447 0 .79-.084 1.028-.252.252-.182.378-.413.378-.693 0-.336-.175-.581-.525-.735-.35-.168-.917-.35-1.7-.546-.84-.196-1.54-.399-2.1-.609a3.77 3.77 0 01-1.45-1.029c-.406-.476-.609-1.113-.609-1.911 0-.672.182-1.281.546-1.827.378-.56.924-1.001 1.638-1.323.728-.322 1.59-.483 2.583-.483 1.47 0 2.625.364 3.465 1.092.854.728 1.344 1.694 1.47 2.898h-3.318a1.415 1.415 0 00-.546-.966c-.294-.238-.686-.357-1.176-.357-.42 0-.742.084-.966.252a.745.745 0 00-.336.651c0 .336.175.588.525.756.364.168.924.336 1.68.504.868.224 1.575.448 2.121.672a3.45 3.45 0 011.428 1.05c.42.476.637 1.12.651 1.932 0 .686-.196 1.302-.588 1.848-.378.532-.93.952-1.659 1.26-.714.308-1.547.462-2.499.462zM100.884 12.941c.336-.546.819-.987 1.449-1.323.63-.336 1.351-.504 2.163-.504.966 0 1.841.245 2.625.735s1.4 1.19 1.848 2.1c.462.91.693 1.967.693 3.171 0 1.204-.231 2.268-.693 3.192-.448.91-1.064 1.617-1.848 2.121a4.852 4.852 0 01-2.625.735c-.826 0-1.547-.161-2.163-.483a3.898 3.898 0 01-1.449-1.323V23h-3.59V7.46h3.59v5.481zm5.124 4.179c0-.896-.252-1.596-.756-2.1-.49-.518-1.099-.777-1.827-.777-.714 0-1.323.259-1.827.777-.49.518-.735 1.225-.735 2.121 0 .896.245 1.603.735 2.121a2.456 2.456 0 001.827.777c.714 0 1.323-.259 1.827-.777.504-.532.756-1.246.756-2.142zM115.137 7.46V23h-3.591V7.46h3.591zM123.074 23.168c-1.148 0-2.185-.245-3.109-.735a5.471 5.471 0 01-2.163-2.1c-.518-.91-.777-1.974-.777-3.192 0-1.204.267-2.261.799-3.171a5.393 5.393 0 012.183-2.121c.924-.49 1.961-.735 3.109-.735s2.184.245 3.108.735a5.396 5.396 0 012.184 2.121c.532.91.797 1.967.797 3.171 0 1.204-.273 2.268-.819 3.192a5.398 5.398 0 01-2.204 2.1c-.924.49-1.96.735-3.108.735zm0-3.108c.686 0 1.266-.252 1.742-.756.49-.504.735-1.225.735-2.163 0-.938-.237-1.659-.713-2.163a2.241 2.241 0 00-1.722-.756c-.7 0-1.282.252-1.744.756-.462.49-.693 1.211-.693 2.163 0 .938.225 1.659.673 2.163a2.241 2.241 0 001.722.756zM135.563 11.114c.826 0 1.547.168 2.163.504.63.336 1.113.777 1.449 1.323v-1.659h3.591v11.697c0 1.078-.217 2.051-.651 2.919-.42.882-1.071 1.582-1.953 2.1-.868.518-1.953.777-3.255.777-1.736 0-3.143-.413-4.221-1.239-1.078-.812-1.694-1.918-1.848-3.318h3.549c.112.448.378.798.798 1.05.42.266.938.399 1.554.399.742 0 1.33-.217 1.764-.651.448-.42.672-1.099.672-2.037V21.32a4.07 4.07 0 01-1.449 1.344c-.616.336-1.337.504-2.163.504a4.852 4.852 0 01-2.625-.735c-.784-.504-1.407-1.211-1.869-2.121-.448-.924-.672-1.988-.672-3.192 0-1.204.224-2.261.672-3.171.462-.91 1.085-1.61 1.869-2.1a4.852 4.852 0 012.625-.735zm3.612 6.027c0-.896-.252-1.603-.756-2.121a2.389 2.389 0 00-1.806-.777c-.714 0-1.323.259-1.827.777-.49.504-.735 1.204-.735 2.1 0 .896.245 1.61.735 2.142a2.456 2.456 0 001.827.777c.714 0 1.316-.259 1.806-.777.504-.518.756-1.225.756-2.121z" fill="#fff"/>
</svg>
